# xmcd
#
# Track frame offsets:
#	150
#	17628
#	37140
#	62768
#	81530
#	100629
#	125623
#	144164
#	162736
#	176616
#	191477
#	211833
#	233096
#	248706
#	276397
#	292997
#	318392
#	343463
#
# Disc length: 4774 seconds
#
# Revision: 3
# Processed by: cddbd v1.5.2PL0 Copyright (c) Steve Scherf et al.
# Submitted via: EZCDAudioConverter 6.0.0.1
#
DISCID=1012a412
DTITLE=Various Artist - Akella Presents - Rockin' Blues - vol.28  CD1  New!
DYEAR=2013
DGENRE=Blues
TTITLE0=COYOTE KINGS - Crazy In The Head
TTITLE1=The ROCKY ATHAS GROUP - No More
TTITLE2=KRIS POHLMANN - Living a Lie
TTITLE3=BLEU JACKSON - Ms. Snake
TTITLE4=SCOTT ELLISON - Big Blue Car
TTITLE5=JIM SUHLER and MONKEY BEAT - Restless Soul
TTITLE6=RICK FOWLER - Skeletons In Your Closet
TTITLE7=DANNY BRYANT - Living In The Lion's Den
TTITLE8=DAVID ROTUNDO BAND - Shake It Down
TTITLE9=Dr. RAGE and The UPPERCUTS - Run
TTITLE10=TIM BROOKS and The ALIEN  SHARECROPPERS - Stand Still
TTITLE11=TY CURTIS - Bad News
TTITLE12=BLUESBALL - These Blues
TTITLE13=TEN YEARS AFTER - Never Saw It Coming
TTITLE14=JOHN CAMPBELLJOHN - The World Is Crazy
TTITLE15=JAMES SOLBERG - Fightin' all 'Round The World
TTITLE16=MICK CLARKE - Graveyard Shift
TTITLE17=The HITMAN BLUES BAND - Trouble On The Line
EXTD=
EXTT0=
EXTT1=
EXTT2=
EXTT3=
EXTT4=
EXTT5=
EXTT6=
EXTT7=
EXTT8=
EXTT9=
EXTT10=
EXTT11=
EXTT12=
EXTT13=
EXTT14=
EXTT15=
EXTT16=
EXTT17=
PLAYORDER=
